<mxfile host="app.diagrams.net" agent="Mozilla/5.0 (Windows NT 10.0; Win64; x64) AppleWebKit/537.36 (KHTML, like Gecko) Chrome/131.0.0.0 Safari/537.36 Edg/131.0.0.0" border="50" scale="3" compressed="false" locked="false" version="26.0.4">
  <diagram name="Blank" id="YmL12bMKpDGza6XwsDPr">
    <mxGraphModel dx="1035" dy="857" grid="0" gridSize="10" guides="1" tooltips="1" connect="1" arrows="1" fold="1" page="0" pageScale="1" pageWidth="827" pageHeight="1169" background="none" math="1" shadow="0">
      <root>
        <mxCell id="X5NqExCQtvZxIxQ7pmgY-0" />
        <mxCell id="1" parent="X5NqExCQtvZxIxQ7pmgY-0" />
        <mxCell id="Gr0Zq-AI6Quabplr0KPa-180" value="&lt;font face=&quot;Comic Sans MS&quot;&gt;Java&lt;/font&gt;" style="ellipse;whiteSpace=wrap;html=1;align=center;container=1;recursiveResize=0;treeFolding=1;strokeWidth=2;movable=1;resizable=1;rotatable=1;deletable=1;editable=1;locked=0;connectable=1;" parent="1" vertex="1">
          <mxGeometry x="326" y="-140" width="108" height="53" as="geometry" />
        </mxCell>
        <mxCell id="Gr0Zq-AI6Quabplr0KPa-210" value="" style="edgeStyle=entityRelationEdgeStyle;startArrow=none;endArrow=none;segment=10;curved=1;strokeWidth=2;strokeColor=#336600;rounded=0;fontSize=12;startSize=8;endSize=8;movable=1;resizable=1;rotatable=1;deletable=1;editable=1;locked=0;connectable=1;" parent="1" source="Gr0Zq-AI6Quabplr0KPa-180" target="Gr0Zq-AI6Quabplr0KPa-209" edge="1">
          <mxGeometry relative="1" as="geometry">
            <mxPoint x="214" y="-113.5" as="sourcePoint" />
            <mxPoint x="304" y="-153.5" as="targetPoint" />
          </mxGeometry>
        </mxCell>
        <mxCell id="Gr0Zq-AI6Quabplr0KPa-211" value="框架" style="text;html=1;resizable=1;points=[];align=center;verticalAlign=middle;labelBackgroundColor=none;rotation=50;fontFamily=Comic Sans MS;movable=1;rotatable=1;deletable=1;editable=1;locked=0;connectable=1;" parent="Gr0Zq-AI6Quabplr0KPa-210" vertex="1" connectable="0">
          <mxGeometry x="0.0245" y="2" relative="1" as="geometry">
            <mxPoint x="12" y="-7" as="offset" />
          </mxGeometry>
        </mxCell>
        <mxCell id="Gr0Zq-AI6Quabplr0KPa-209" value="" style="whiteSpace=wrap;html=1;rounded=1;arcSize=50;align=center;verticalAlign=middle;container=1;recursiveResize=0;strokeWidth=1;autosize=1;spacing=4;treeFolding=1;movable=1;resizable=1;rotatable=1;deletable=1;editable=1;locked=0;connectable=1;" parent="1" vertex="1">
          <mxGeometry x="223" y="-161" height="1" as="geometry" />
        </mxCell>
        <mxCell id="weYwpgBtBjXtjdj9eZsf-89" value="" style="edgeStyle=entityRelationEdgeStyle;startArrow=none;endArrow=none;segment=10;curved=1;strokeColor=#336600;rounded=0;fontSize=12;startSize=8;endSize=8;movable=1;resizable=1;rotatable=1;deletable=1;editable=1;locked=0;connectable=1;" edge="1" target="weYwpgBtBjXtjdj9eZsf-122" source="Gr0Zq-AI6Quabplr0KPa-209" parent="1">
          <mxGeometry relative="1" as="geometry">
            <mxPoint x="307" y="-80" as="sourcePoint" />
            <mxPoint x="-54" y="-88" as="targetPoint" />
          </mxGeometry>
        </mxCell>
        <mxCell id="weYwpgBtBjXtjdj9eZsf-90" value="标准库框架" style="text;html=1;resizable=1;points=[];align=center;verticalAlign=middle;labelBackgroundColor=none;fontFamily=Comic Sans MS;rotation=-1;fontSize=10;movable=1;rotatable=1;deletable=1;editable=1;locked=0;connectable=1;" vertex="1" connectable="0" parent="weYwpgBtBjXtjdj9eZsf-89">
          <mxGeometry x="-0.1124" y="-1" relative="1" as="geometry">
            <mxPoint x="-18" y="6" as="offset" />
          </mxGeometry>
        </mxCell>
        <mxCell id="weYwpgBtBjXtjdj9eZsf-122" value="" style="whiteSpace=wrap;html=1;rounded=1;arcSize=50;align=center;verticalAlign=middle;container=1;recursiveResize=0;strokeWidth=1;autosize=1;spacing=4;treeFolding=1;collapsible=0;movable=1;resizable=1;rotatable=1;deletable=1;editable=1;locked=0;connectable=1;" vertex="1" parent="1">
          <mxGeometry x="154" y="-124" height="1" as="geometry" />
        </mxCell>
        <mxCell id="weYwpgBtBjXtjdj9eZsf-148" value="" style="edgeStyle=entityRelationEdgeStyle;startArrow=none;endArrow=none;segment=10;curved=1;strokeWidth=2;strokeColor=#660000;rounded=0;fontSize=12;startSize=8;endSize=8;movable=1;resizable=1;rotatable=1;deletable=1;editable=1;locked=0;connectable=1;" edge="1" target="weYwpgBtBjXtjdj9eZsf-150" source="weYwpgBtBjXtjdj9eZsf-122" parent="1">
          <mxGeometry relative="1" as="geometry">
            <mxPoint x="203" y="-71" as="sourcePoint" />
            <mxPoint x="120" y="-77.5" as="targetPoint" />
            <Array as="points">
              <mxPoint x="230" y="-25" />
            </Array>
          </mxGeometry>
        </mxCell>
        <mxCell id="weYwpgBtBjXtjdj9eZsf-149" value="&lt;font style=&quot;color: rgb(255, 0, 0);&quot;&gt;.lang&lt;/font&gt;&lt;font style=&quot;color: rgb(51, 0, 0);&quot;&gt;基础类&lt;/font&gt;" style="text;html=1;resizable=1;points=[];align=center;verticalAlign=middle;labelBackgroundColor=none;rotation=0;fontFamily=Comic Sans MS;movable=1;rotatable=1;deletable=1;editable=1;locked=0;connectable=1;" vertex="1" connectable="0" parent="weYwpgBtBjXtjdj9eZsf-148">
          <mxGeometry x="0.0245" y="2" relative="1" as="geometry">
            <mxPoint x="-4" y="-1" as="offset" />
          </mxGeometry>
        </mxCell>
        <mxCell id="weYwpgBtBjXtjdj9eZsf-150" value="" style="whiteSpace=wrap;html=1;rounded=1;arcSize=50;align=center;verticalAlign=middle;container=1;recursiveResize=0;strokeWidth=1;autosize=1;spacing=4;treeFolding=1;movable=1;resizable=1;rotatable=1;deletable=1;editable=1;locked=0;connectable=1;" vertex="1" parent="1">
          <mxGeometry x="43" y="-26" height="1" as="geometry" />
        </mxCell>
        <mxCell id="Gr0Zq-AI6Quabplr0KPa-225" value="" style="edgeStyle=entityRelationEdgeStyle;startArrow=none;endArrow=none;segment=10;curved=1;strokeWidth=2;strokeColor=#660000;rounded=0;fontSize=12;startSize=8;endSize=8;movable=1;resizable=1;rotatable=1;deletable=1;editable=1;locked=0;connectable=1;" parent="1" source="weYwpgBtBjXtjdj9eZsf-122" target="Gr0Zq-AI6Quabplr0KPa-224" edge="1">
          <mxGeometry relative="1" as="geometry">
            <mxPoint x="66" y="-172" as="sourcePoint" />
            <mxPoint x="36" y="-157.5" as="targetPoint" />
            <Array as="points">
              <mxPoint x="146" y="-105" />
            </Array>
          </mxGeometry>
        </mxCell>
        <mxCell id="Gr0Zq-AI6Quabplr0KPa-226" value="&lt;font style=&quot;color: rgb(255, 0, 0);&quot;&gt;.util&lt;/font&gt;常用&lt;font style=&quot;color: rgb(255, 128, 0);&quot;&gt;数据结构&lt;/font&gt;&lt;font style=&quot;color: rgb(51, 0, 0);&quot;&gt;/&lt;/font&gt;&lt;font style=&quot;color: rgb(255, 128, 0);&quot;&gt;工具类&lt;/font&gt;" style="text;html=1;resizable=1;points=[];align=center;verticalAlign=middle;labelBackgroundColor=none;rotation=0;fontFamily=Comic Sans MS;movable=1;rotatable=1;deletable=1;editable=1;locked=0;connectable=1;" parent="Gr0Zq-AI6Quabplr0KPa-225" vertex="1" connectable="0">
          <mxGeometry x="0.0245" y="2" relative="1" as="geometry">
            <mxPoint x="2" y="8" as="offset" />
          </mxGeometry>
        </mxCell>
        <mxCell id="Gr0Zq-AI6Quabplr0KPa-224" value="" style="whiteSpace=wrap;html=1;rounded=1;arcSize=50;align=center;verticalAlign=middle;container=1;recursiveResize=0;strokeWidth=1;autosize=1;spacing=4;treeFolding=1;movable=1;resizable=1;rotatable=1;deletable=1;editable=1;locked=0;connectable=1;" parent="1" vertex="1">
          <mxGeometry x="66" y="-202" height="1" as="geometry" />
        </mxCell>
        <mxCell id="Gr0Zq-AI6Quabplr0KPa-234" value="" style="edgeStyle=entityRelationEdgeStyle;startArrow=none;endArrow=none;segment=10;curved=1;strokeColor=#660000;rounded=0;fontSize=12;startSize=8;endSize=8;movable=1;resizable=1;rotatable=1;deletable=1;editable=1;locked=0;connectable=1;" parent="1" source="Gr0Zq-AI6Quabplr0KPa-224" target="Gr0Zq-AI6Quabplr0KPa-233" edge="1">
          <mxGeometry relative="1" as="geometry">
            <mxPoint x="-323" y="5.470000000000027" as="sourcePoint" />
            <mxPoint x="-261" y="27.970000000000027" as="targetPoint" />
          </mxGeometry>
        </mxCell>
        <mxCell id="Gr0Zq-AI6Quabplr0KPa-235" value="集合框架" style="text;html=1;resizable=1;points=[];align=center;verticalAlign=middle;labelBackgroundColor=none;fontFamily=Comic Sans MS;rotation=20;collapsible=0;movable=1;rotatable=1;deletable=1;editable=1;locked=0;connectable=1;" parent="Gr0Zq-AI6Quabplr0KPa-234" vertex="1" connectable="0">
          <mxGeometry x="0.2571" relative="1" as="geometry">
            <mxPoint x="-14" y="-8" as="offset" />
          </mxGeometry>
        </mxCell>
        <mxCell id="Gr0Zq-AI6Quabplr0KPa-233" value="" style="whiteSpace=wrap;html=1;rounded=1;arcSize=50;align=center;verticalAlign=middle;container=1;recursiveResize=0;strokeWidth=1;autosize=1;spacing=4;treeFolding=1;collapsible=0;movable=1;resizable=1;rotatable=1;deletable=1;editable=1;locked=0;connectable=1;" parent="1" vertex="1">
          <mxGeometry x="-63" y="-228" width="5" as="geometry" />
        </mxCell>
        <mxCell id="weYwpgBtBjXtjdj9eZsf-66" value="" style="edgeStyle=entityRelationEdgeStyle;startArrow=none;endArrow=none;segment=10;curved=1;strokeColor=#6c8ebf;rounded=0;fontSize=12;startSize=8;endSize=8;fillColor=#dae8fc;movable=1;resizable=1;rotatable=1;deletable=1;editable=1;locked=0;connectable=1;" edge="1" target="weYwpgBtBjXtjdj9eZsf-68" source="Gr0Zq-AI6Quabplr0KPa-233" parent="1">
          <mxGeometry relative="1" as="geometry">
            <mxPoint x="128" y="-13.029999999999973" as="sourcePoint" />
            <mxPoint x="-362" y="33.97000000000003" as="targetPoint" />
          </mxGeometry>
        </mxCell>
        <mxCell id="weYwpgBtBjXtjdj9eZsf-67" value="框架的体现" style="text;html=1;resizable=1;points=[];align=center;verticalAlign=middle;labelBackgroundColor=none;fontFamily=Comic Sans MS;rotation=-15;collapsible=0;movable=1;rotatable=1;deletable=1;editable=1;locked=0;connectable=1;" vertex="1" connectable="0" parent="weYwpgBtBjXtjdj9eZsf-66">
          <mxGeometry x="0.2571" relative="1" as="geometry">
            <mxPoint x="-2" y="-13" as="offset" />
          </mxGeometry>
        </mxCell>
        <mxCell id="weYwpgBtBjXtjdj9eZsf-68" value="" style="whiteSpace=wrap;html=1;rounded=1;arcSize=50;align=center;verticalAlign=middle;container=1;recursiveResize=0;strokeWidth=1;autosize=1;spacing=4;treeFolding=1;collapsible=0;movable=1;resizable=1;rotatable=1;deletable=1;editable=1;locked=0;connectable=1;" vertex="1" parent="1">
          <mxGeometry x="-221" y="-171" width="5" as="geometry" />
        </mxCell>
        <mxCell id="weYwpgBtBjXtjdj9eZsf-63" value="" style="edgeStyle=entityRelationEdgeStyle;startArrow=none;endArrow=none;segment=10;curved=1;strokeColor=#660000;rounded=0;fontSize=12;startSize=8;endSize=8;movable=1;resizable=1;rotatable=1;deletable=1;editable=1;locked=0;connectable=1;" edge="1" target="weYwpgBtBjXtjdj9eZsf-65" source="Gr0Zq-AI6Quabplr0KPa-233" parent="1">
          <mxGeometry relative="1" as="geometry">
            <mxPoint x="128" y="-13.029999999999973" as="sourcePoint" />
            <mxPoint x="-362" y="33.97000000000003" as="targetPoint" />
          </mxGeometry>
        </mxCell>
        <mxCell id="weYwpgBtBjXtjdj9eZsf-64" value="Map接口" style="text;html=1;resizable=1;points=[];align=center;verticalAlign=middle;labelBackgroundColor=none;fontFamily=Comic Sans MS;rotation=20;collapsible=0;movable=1;rotatable=1;deletable=1;editable=1;locked=0;connectable=1;" vertex="1" connectable="0" parent="weYwpgBtBjXtjdj9eZsf-63">
          <mxGeometry x="0.2571" relative="1" as="geometry">
            <mxPoint x="-5" y="-9" as="offset" />
          </mxGeometry>
        </mxCell>
        <mxCell id="weYwpgBtBjXtjdj9eZsf-65" value="" style="whiteSpace=wrap;html=1;rounded=1;arcSize=50;align=center;verticalAlign=middle;container=1;recursiveResize=0;strokeWidth=1;autosize=1;spacing=4;treeFolding=1;collapsible=0;movable=1;resizable=1;rotatable=1;deletable=1;editable=1;locked=0;connectable=1;" vertex="1" parent="1">
          <mxGeometry x="-231" y="-247" width="5" as="geometry" />
        </mxCell>
        <mxCell id="weYwpgBtBjXtjdj9eZsf-59" value="" style="edgeStyle=entityRelationEdgeStyle;startArrow=none;endArrow=none;segment=10;curved=1;strokeColor=#660000;rounded=0;fontSize=12;startSize=8;endSize=8;movable=1;resizable=1;rotatable=1;deletable=1;editable=1;locked=0;connectable=1;" edge="1" target="weYwpgBtBjXtjdj9eZsf-61" source="Gr0Zq-AI6Quabplr0KPa-233" parent="1">
          <mxGeometry relative="1" as="geometry">
            <mxPoint x="128" y="-13.029999999999973" as="sourcePoint" />
            <mxPoint x="-362" y="33.97000000000003" as="targetPoint" />
          </mxGeometry>
        </mxCell>
        <mxCell id="weYwpgBtBjXtjdj9eZsf-60" value="Collection接口" style="text;html=1;resizable=1;points=[];align=center;verticalAlign=middle;labelBackgroundColor=none;fontFamily=Comic Sans MS;rotation=30;collapsible=0;movable=1;rotatable=1;deletable=1;editable=1;locked=0;connectable=1;" vertex="1" connectable="0" parent="weYwpgBtBjXtjdj9eZsf-59">
          <mxGeometry x="0.2571" relative="1" as="geometry">
            <mxPoint x="-2" y="-13" as="offset" />
          </mxGeometry>
        </mxCell>
        <mxCell id="weYwpgBtBjXtjdj9eZsf-61" value="" style="whiteSpace=wrap;html=1;rounded=1;arcSize=50;align=center;verticalAlign=middle;container=1;recursiveResize=0;strokeWidth=1;autosize=1;spacing=4;treeFolding=1;collapsible=0;movable=1;resizable=1;rotatable=1;deletable=1;editable=1;locked=0;connectable=1;" vertex="1" collapsed="1" parent="1">
          <mxGeometry x="-219" y="-306" width="5" as="geometry" />
        </mxCell>
        <mxCell id="Gr0Zq-AI6Quabplr0KPa-231" value="" style="edgeStyle=entityRelationEdgeStyle;startArrow=none;endArrow=none;segment=10;curved=1;strokeColor=#660000;rounded=0;fontSize=12;startSize=8;endSize=8;movable=1;resizable=1;rotatable=1;deletable=1;editable=1;locked=0;connectable=1;" parent="1" source="Gr0Zq-AI6Quabplr0KPa-224" target="Gr0Zq-AI6Quabplr0KPa-230" edge="1">
          <mxGeometry relative="1" as="geometry">
            <mxPoint x="-328" y="-4.529999999999973" as="sourcePoint" />
            <mxPoint x="-266" y="17.970000000000027" as="targetPoint" />
          </mxGeometry>
        </mxCell>
        <mxCell id="Gr0Zq-AI6Quabplr0KPa-232" value="Sharing" style="text;html=1;resizable=1;points=[];align=center;verticalAlign=middle;labelBackgroundColor=none;fontFamily=Comic Sans MS;rotation=-1;fontSize=12;collapsible=0;movable=1;rotatable=1;deletable=1;editable=1;locked=0;connectable=1;" parent="Gr0Zq-AI6Quabplr0KPa-231" vertex="1" connectable="0">
          <mxGeometry x="-0.1124" y="-1" relative="1" as="geometry">
            <mxPoint x="-37" y="-9" as="offset" />
          </mxGeometry>
        </mxCell>
        <mxCell id="Gr0Zq-AI6Quabplr0KPa-230" value="" style="whiteSpace=wrap;html=1;rounded=1;arcSize=50;align=center;verticalAlign=middle;container=1;recursiveResize=0;strokeWidth=1;autosize=1;spacing=4;treeFolding=1;collapsible=0;movable=1;resizable=1;rotatable=1;deletable=1;editable=1;locked=0;connectable=1;" parent="1" vertex="1">
          <mxGeometry x="-66" y="-184" height="2" as="geometry" />
        </mxCell>
        <mxCell id="Gr0Zq-AI6Quabplr0KPa-228" value="" style="edgeStyle=entityRelationEdgeStyle;startArrow=none;endArrow=none;segment=10;curved=1;strokeColor=#660000;rounded=0;fontSize=12;startSize=8;endSize=8;movable=1;resizable=1;rotatable=1;deletable=1;editable=1;locked=0;connectable=1;" parent="1" source="Gr0Zq-AI6Quabplr0KPa-224" target="Gr0Zq-AI6Quabplr0KPa-227" edge="1">
          <mxGeometry relative="1" as="geometry">
            <mxPoint x="-266" y="72.47000000000003" as="sourcePoint" />
            <mxPoint x="-266" y="17.970000000000027" as="targetPoint" />
          </mxGeometry>
        </mxCell>
        <mxCell id="Gr0Zq-AI6Quabplr0KPa-229" value="Colleagues" style="text;html=1;resizable=1;points=[];align=center;verticalAlign=middle;labelBackgroundColor=none;fontFamily=Comic Sans MS;rotation=-26;fontSize=12;collapsible=0;movable=1;rotatable=1;deletable=1;editable=1;locked=0;connectable=1;" parent="Gr0Zq-AI6Quabplr0KPa-228" vertex="1" connectable="0">
          <mxGeometry x="-0.1124" y="-1" relative="1" as="geometry">
            <mxPoint x="-34" y="8" as="offset" />
          </mxGeometry>
        </mxCell>
        <mxCell id="Gr0Zq-AI6Quabplr0KPa-227" value="" style="whiteSpace=wrap;html=1;rounded=1;arcSize=50;align=center;verticalAlign=middle;container=1;recursiveResize=0;strokeWidth=1;autosize=1;spacing=4;treeFolding=1;collapsible=0;movable=1;resizable=1;rotatable=1;deletable=1;editable=1;locked=0;connectable=1;" parent="1" vertex="1">
          <mxGeometry x="-58" y="-127" height="1" as="geometry" />
        </mxCell>
        <mxCell id="Gr0Zq-AI6Quabplr0KPa-216" value="" style="edgeStyle=entityRelationEdgeStyle;startArrow=none;endArrow=none;segment=10;curved=1;strokeColor=#336600;rounded=0;fontSize=12;startSize=8;endSize=8;movable=1;resizable=1;rotatable=1;deletable=1;editable=1;locked=0;connectable=1;" parent="1" source="Gr0Zq-AI6Quabplr0KPa-209" target="Gr0Zq-AI6Quabplr0KPa-215" edge="1">
          <mxGeometry relative="1" as="geometry">
            <mxPoint x="-200" y="-190.5" as="sourcePoint" />
            <mxPoint x="-138" y="-168" as="targetPoint" />
          </mxGeometry>
        </mxCell>
        <mxCell id="Gr0Zq-AI6Quabplr0KPa-217" value="设计模式" style="text;html=1;resizable=1;points=[];align=center;verticalAlign=middle;labelBackgroundColor=none;fontFamily=Comic Sans MS;rotation=-1;fontSize=10;movable=1;rotatable=1;deletable=1;editable=1;locked=0;connectable=1;" parent="Gr0Zq-AI6Quabplr0KPa-216" vertex="1" connectable="0">
          <mxGeometry x="-0.1124" y="-1" relative="1" as="geometry">
            <mxPoint x="-18" y="-6" as="offset" />
          </mxGeometry>
        </mxCell>
        <mxCell id="Gr0Zq-AI6Quabplr0KPa-215" value="" style="whiteSpace=wrap;html=1;rounded=1;arcSize=50;align=center;verticalAlign=middle;container=1;recursiveResize=0;strokeWidth=1;autosize=1;spacing=4;treeFolding=1;collapsible=0;movable=1;resizable=1;rotatable=1;deletable=1;editable=1;locked=0;connectable=1;" parent="1" vertex="1" collapsed="1">
          <mxGeometry x="129" y="-333" height="1" as="geometry" />
        </mxCell>
        <mxCell id="Gr0Zq-AI6Quabplr0KPa-219" value="" style="edgeStyle=entityRelationEdgeStyle;startArrow=none;endArrow=none;segment=10;curved=1;strokeColor=#336600;rounded=0;fontSize=12;startSize=8;endSize=8;movable=1;resizable=1;rotatable=1;deletable=1;editable=1;locked=0;connectable=1;" parent="1" source="Gr0Zq-AI6Quabplr0KPa-209" target="Gr0Zq-AI6Quabplr0KPa-218" edge="1">
          <mxGeometry relative="1" as="geometry">
            <mxPoint x="-195" y="-180.5" as="sourcePoint" />
            <mxPoint x="-133" y="-158" as="targetPoint" />
          </mxGeometry>
        </mxCell>
        <mxCell id="Gr0Zq-AI6Quabplr0KPa-218" value="" style="whiteSpace=wrap;html=1;rounded=1;arcSize=50;align=center;verticalAlign=middle;container=1;recursiveResize=0;strokeWidth=1;autosize=1;spacing=4;treeFolding=1;collapsible=0;movable=1;resizable=1;rotatable=1;deletable=1;editable=1;locked=0;connectable=1;" parent="1" vertex="1" collapsed="1">
          <mxGeometry x="106" y="-254" width="5" as="geometry" />
        </mxCell>
        <mxCell id="Gr0Zq-AI6Quabplr0KPa-239" value="" style="startArrow=none;endArrow=none;segment=10;strokeWidth=2;strokeColor=#CCCC00;exitX=0.5;exitY=1;curved=1;rounded=0;fontSize=12;startSize=8;endSize=8;movable=1;resizable=1;rotatable=1;deletable=1;editable=1;locked=0;connectable=1;" parent="1" source="Gr0Zq-AI6Quabplr0KPa-180" target="Gr0Zq-AI6Quabplr0KPa-238" edge="1">
          <mxGeometry relative="1" as="geometry">
            <mxPoint x="106" y="-113.49999999999977" as="sourcePoint" />
            <mxPoint x="-5" y="-58.5" as="targetPoint" />
            <Array as="points">
              <mxPoint x="386" y="-40" />
              <mxPoint x="371" y="-23" />
              <mxPoint x="329" y="-3" />
            </Array>
          </mxGeometry>
        </mxCell>
        <mxCell id="Gr0Zq-AI6Quabplr0KPa-240" value="数据库接口JDBC&lt;div&gt;&lt;br&gt;&lt;/div&gt;" style="text;html=1;resizable=1;points=[];align=center;verticalAlign=middle;labelBackgroundColor=none;rotation=-30;fontFamily=Comic Sans MS;movable=1;rotatable=1;deletable=1;editable=1;locked=0;connectable=1;" parent="Gr0Zq-AI6Quabplr0KPa-239" vertex="1" connectable="0">
          <mxGeometry x="0.0245" y="2" relative="1" as="geometry">
            <mxPoint x="-24" y="-2" as="offset" />
          </mxGeometry>
        </mxCell>
        <mxCell id="Gr0Zq-AI6Quabplr0KPa-238" value="" style="whiteSpace=wrap;html=1;rounded=1;arcSize=50;align=center;verticalAlign=middle;container=1;recursiveResize=0;strokeWidth=1;autosize=1;spacing=4;treeFolding=1;movable=1;resizable=1;rotatable=1;deletable=1;editable=1;locked=0;connectable=1;" parent="1" vertex="1">
          <mxGeometry x="310" y="21" height="1" as="geometry" />
        </mxCell>
        <mxCell id="Gr0Zq-AI6Quabplr0KPa-245" value="" style="edgeStyle=entityRelationEdgeStyle;startArrow=none;endArrow=none;segment=10;curved=1;strokeColor=#CCCC00;rounded=0;fontSize=12;startSize=8;endSize=8;movable=1;resizable=1;rotatable=1;deletable=1;editable=1;locked=0;connectable=1;" parent="1" source="Gr0Zq-AI6Quabplr0KPa-238" target="Gr0Zq-AI6Quabplr0KPa-244" edge="1">
          <mxGeometry relative="1" as="geometry">
            <mxPoint x="-355" y="77.5" as="sourcePoint" />
            <mxPoint x="-293" y="100" as="targetPoint" />
          </mxGeometry>
        </mxCell>
        <mxCell id="Gr0Zq-AI6Quabplr0KPa-246" value="组件" style="text;html=1;resizable=1;points=[];align=center;verticalAlign=middle;labelBackgroundColor=none;fontFamily=Comic Sans MS;rotation=15;fontSize=12;movable=1;rotatable=1;deletable=1;editable=1;locked=0;connectable=1;" parent="Gr0Zq-AI6Quabplr0KPa-245" vertex="1" connectable="0">
          <mxGeometry x="-0.1124" y="-1" relative="1" as="geometry">
            <mxPoint x="-6" y="-13" as="offset" />
          </mxGeometry>
        </mxCell>
        <mxCell id="Gr0Zq-AI6Quabplr0KPa-244" value="" style="whiteSpace=wrap;html=1;rounded=1;arcSize=50;align=center;verticalAlign=middle;container=1;recursiveResize=0;strokeWidth=1;autosize=1;spacing=4;treeFolding=1;collapsible=0;movable=1;resizable=1;rotatable=1;deletable=1;editable=1;locked=0;connectable=1;" parent="1" vertex="1" collapsed="1">
          <mxGeometry x="193" y="-5" height="1" as="geometry" />
        </mxCell>
        <mxCell id="Gr0Zq-AI6Quabplr0KPa-242" value="" style="startArrow=none;endArrow=none;segment=10;strokeColor=#CCCC00;curved=1;rounded=0;fontSize=12;startSize=8;endSize=8;movable=1;resizable=1;rotatable=1;deletable=1;editable=1;locked=0;connectable=1;" parent="1" source="Gr0Zq-AI6Quabplr0KPa-238" target="Gr0Zq-AI6Quabplr0KPa-241" edge="1">
          <mxGeometry relative="1" as="geometry">
            <mxPoint x="-293" y="154.5" as="sourcePoint" />
            <mxPoint x="1" y="69" as="targetPoint" />
            <Array as="points">
              <mxPoint x="275" y="54" />
            </Array>
          </mxGeometry>
        </mxCell>
        <mxCell id="Gr0Zq-AI6Quabplr0KPa-243" value="驱动" style="text;html=1;resizable=1;points=[];align=center;verticalAlign=middle;labelBackgroundColor=none;fontFamily=Comic Sans MS;rotation=-15;fontSize=12;collapsible=0;movable=1;rotatable=1;deletable=1;editable=1;locked=0;connectable=1;" parent="Gr0Zq-AI6Quabplr0KPa-242" vertex="1" connectable="0">
          <mxGeometry x="-0.1124" y="-1" relative="1" as="geometry">
            <mxPoint x="-30" y="-10" as="offset" />
          </mxGeometry>
        </mxCell>
        <mxCell id="Gr0Zq-AI6Quabplr0KPa-241" value="" style="whiteSpace=wrap;html=1;rounded=1;arcSize=50;align=center;verticalAlign=middle;container=1;recursiveResize=0;strokeWidth=1;autosize=1;spacing=4;treeFolding=1;collapsible=0;movable=1;resizable=1;rotatable=1;deletable=1;editable=1;locked=0;connectable=1;" parent="1" vertex="1" collapsed="1">
          <mxGeometry x="201" y="63" height="1" as="geometry" />
        </mxCell>
        <mxCell id="Gr0Zq-AI6Quabplr0KPa-194" value="" style="edgeStyle=entityRelationEdgeStyle;startArrow=none;endArrow=none;segment=10;curved=1;strokeWidth=2;strokeColor=#000099;rounded=0;fontSize=12;startSize=8;endSize=8;movable=1;resizable=1;rotatable=1;deletable=1;editable=1;locked=0;connectable=1;" parent="1" source="Gr0Zq-AI6Quabplr0KPa-180" target="Gr0Zq-AI6Quabplr0KPa-193" edge="1">
          <mxGeometry relative="1" as="geometry">
            <mxPoint x="214" y="-113.5" as="sourcePoint" />
            <mxPoint x="318" y="-43.5" as="targetPoint" />
          </mxGeometry>
        </mxCell>
        <mxCell id="Gr0Zq-AI6Quabplr0KPa-195" value="多线程" style="text;html=1;resizable=1;points=[];align=center;verticalAlign=middle;labelBackgroundColor=none;rotation=60;fontFamily=Comic Sans MS;movable=1;rotatable=1;deletable=1;editable=1;locked=0;connectable=1;" parent="Gr0Zq-AI6Quabplr0KPa-194" vertex="1" connectable="0">
          <mxGeometry x="0.0245" y="2" relative="1" as="geometry">
            <mxPoint x="13" y="6" as="offset" />
          </mxGeometry>
        </mxCell>
        <mxCell id="Gr0Zq-AI6Quabplr0KPa-193" value="" style="whiteSpace=wrap;html=1;rounded=1;arcSize=50;align=center;verticalAlign=middle;container=1;recursiveResize=0;strokeWidth=1;autosize=1;spacing=4;treeFolding=1;movable=1;resizable=1;rotatable=1;deletable=1;editable=1;locked=0;connectable=1;" parent="1" vertex="1">
          <mxGeometry x="527" y="20" height="1" as="geometry" />
        </mxCell>
        <mxCell id="Gr0Zq-AI6Quabplr0KPa-203" value="" style="edgeStyle=entityRelationEdgeStyle;startArrow=none;endArrow=none;segment=10;curved=1;strokeColor=#000099;rounded=0;fontSize=12;startSize=8;endSize=8;movable=1;resizable=1;rotatable=1;deletable=1;editable=1;locked=0;connectable=1;" parent="1" source="Gr0Zq-AI6Quabplr0KPa-193" target="Gr0Zq-AI6Quabplr0KPa-202" edge="1">
          <mxGeometry relative="1" as="geometry">
            <mxPoint x="307" y="20.5" as="sourcePoint" />
            <mxPoint x="307" y="-34" as="targetPoint" />
          </mxGeometry>
        </mxCell>
        <mxCell id="Gr0Zq-AI6Quabplr0KPa-204" value="Thoughts" style="text;html=1;resizable=1;points=[];align=center;verticalAlign=middle;labelBackgroundColor=none;fontFamily=Comic Sans MS;rotation=30;movable=1;rotatable=1;deletable=1;editable=1;locked=0;connectable=1;" parent="Gr0Zq-AI6Quabplr0KPa-203" vertex="1" connectable="0">
          <mxGeometry x="-0.1124" y="-1" relative="1" as="geometry">
            <mxPoint x="28" y="1" as="offset" />
          </mxGeometry>
        </mxCell>
        <mxCell id="Gr0Zq-AI6Quabplr0KPa-202" value="" style="whiteSpace=wrap;html=1;rounded=1;arcSize=50;align=center;verticalAlign=middle;container=1;recursiveResize=0;strokeWidth=1;autosize=1;spacing=4;treeFolding=1;collapsible=0;movable=1;resizable=1;rotatable=1;deletable=1;editable=1;locked=0;connectable=1;" parent="1" vertex="1">
          <mxGeometry x="647" y="90" height="1" as="geometry" />
        </mxCell>
        <mxCell id="Gr0Zq-AI6Quabplr0KPa-200" value="" style="edgeStyle=entityRelationEdgeStyle;startArrow=none;endArrow=none;segment=10;curved=1;strokeColor=#000099;rounded=0;fontSize=12;startSize=8;endSize=8;movable=1;resizable=1;rotatable=1;deletable=1;editable=1;locked=0;connectable=1;" parent="1" source="Gr0Zq-AI6Quabplr0KPa-193" target="Gr0Zq-AI6Quabplr0KPa-199" edge="1">
          <mxGeometry relative="1" as="geometry">
            <mxPoint x="245" y="-56.5" as="sourcePoint" />
            <mxPoint x="307" y="-34" as="targetPoint" />
          </mxGeometry>
        </mxCell>
        <mxCell id="Gr0Zq-AI6Quabplr0KPa-201" value="接口集" style="text;html=1;resizable=1;points=[];align=center;verticalAlign=middle;labelBackgroundColor=none;fontFamily=Comic Sans MS;rotation=0;movable=1;rotatable=1;deletable=1;editable=1;locked=0;connectable=1;" parent="Gr0Zq-AI6Quabplr0KPa-200" vertex="1" connectable="0">
          <mxGeometry x="-0.1124" y="-1" relative="1" as="geometry">
            <mxPoint x="24" y="-12" as="offset" />
          </mxGeometry>
        </mxCell>
        <mxCell id="Gr0Zq-AI6Quabplr0KPa-199" value="" style="whiteSpace=wrap;html=1;rounded=1;arcSize=50;align=center;verticalAlign=middle;container=1;recursiveResize=0;strokeWidth=1;autosize=1;spacing=4;treeFolding=1;collapsible=0;movable=1;resizable=1;rotatable=1;deletable=1;editable=1;locked=0;connectable=1;" parent="1" vertex="1">
          <mxGeometry x="647" y="30" height="1" as="geometry" />
        </mxCell>
        <mxCell id="Gr0Zq-AI6Quabplr0KPa-197" value="" style="edgeStyle=entityRelationEdgeStyle;startArrow=none;endArrow=none;segment=10;curved=1;strokeColor=#000099;rounded=0;fontSize=12;startSize=8;endSize=8;movable=1;resizable=1;rotatable=1;deletable=1;editable=1;locked=0;connectable=1;" parent="1" source="Gr0Zq-AI6Quabplr0KPa-193" target="Gr0Zq-AI6Quabplr0KPa-196" edge="1">
          <mxGeometry relative="1" as="geometry">
            <mxPoint x="250" y="-46.5" as="sourcePoint" />
            <mxPoint x="312" y="-24" as="targetPoint" />
          </mxGeometry>
        </mxCell>
        <mxCell id="Gr0Zq-AI6Quabplr0KPa-198" value="框架体现" style="text;html=1;resizable=1;points=[];align=center;verticalAlign=middle;labelBackgroundColor=none;fontFamily=Comic Sans MS;rotation=-30;movable=1;rotatable=1;deletable=1;editable=1;locked=0;connectable=1;" parent="Gr0Zq-AI6Quabplr0KPa-197" vertex="1" connectable="0">
          <mxGeometry x="0.2571" relative="1" as="geometry">
            <mxPoint x="3" y="-14" as="offset" />
          </mxGeometry>
        </mxCell>
        <mxCell id="Gr0Zq-AI6Quabplr0KPa-196" value="" style="whiteSpace=wrap;html=1;rounded=1;arcSize=50;align=center;verticalAlign=middle;container=1;recursiveResize=0;strokeWidth=1;autosize=1;spacing=4;treeFolding=1;collapsible=0;movable=1;resizable=1;rotatable=1;deletable=1;editable=1;locked=0;connectable=1;" parent="1" vertex="1">
          <mxGeometry x="625" y="-20" width="5" as="geometry" />
        </mxCell>
        <mxCell id="Gr0Zq-AI6Quabplr0KPa-182" value="" style="edgeStyle=entityRelationEdgeStyle;startArrow=none;endArrow=none;segment=10;curved=1;strokeWidth=2;strokeColor=#660000;rounded=0;fontSize=12;startSize=8;endSize=8;movable=1;resizable=1;rotatable=1;deletable=1;editable=1;locked=0;connectable=1;" parent="1" source="Gr0Zq-AI6Quabplr0KPa-180" target="Gr0Zq-AI6Quabplr0KPa-181" edge="1">
          <mxGeometry relative="1" as="geometry">
            <mxPoint x="216" y="-136.5" as="sourcePoint" />
            <mxPoint x="278" y="-114" as="targetPoint" />
          </mxGeometry>
        </mxCell>
        <mxCell id="Gr0Zq-AI6Quabplr0KPa-183" value="面向对象" style="text;html=1;resizable=1;points=[];align=center;verticalAlign=middle;labelBackgroundColor=none;rotation=-30;fontFamily=Comic Sans MS;movable=1;rotatable=1;deletable=1;editable=1;locked=0;connectable=1;" parent="Gr0Zq-AI6Quabplr0KPa-182" vertex="1" connectable="0">
          <mxGeometry x="0.0245" y="2" relative="1" as="geometry">
            <mxPoint x="1" y="-9" as="offset" />
          </mxGeometry>
        </mxCell>
        <mxCell id="Gr0Zq-AI6Quabplr0KPa-181" value="" style="whiteSpace=wrap;html=1;rounded=1;arcSize=50;align=center;verticalAlign=middle;container=1;recursiveResize=0;strokeWidth=1;autosize=1;spacing=4;treeFolding=1;movable=1;resizable=1;rotatable=1;deletable=1;editable=1;locked=0;connectable=1;" parent="1" vertex="1">
          <mxGeometry x="524" y="-154" height="1" as="geometry" />
        </mxCell>
        <mxCell id="Gr0Zq-AI6Quabplr0KPa-191" value="" style="edgeStyle=entityRelationEdgeStyle;startArrow=none;endArrow=none;segment=10;curved=1;strokeColor=#660000;rounded=0;fontSize=12;startSize=8;endSize=8;movable=1;resizable=1;rotatable=1;deletable=1;editable=1;locked=0;connectable=1;" parent="1" source="Gr0Zq-AI6Quabplr0KPa-181" target="Gr0Zq-AI6Quabplr0KPa-190" edge="1">
          <mxGeometry relative="1" as="geometry">
            <mxPoint x="304" y="-153.5" as="sourcePoint" />
            <mxPoint x="304" y="-208" as="targetPoint" />
          </mxGeometry>
        </mxCell>
        <mxCell id="Gr0Zq-AI6Quabplr0KPa-192" value="Strategies" style="text;html=1;resizable=1;points=[];align=center;verticalAlign=middle;labelBackgroundColor=none;fontFamily=Comic Sans MS;rotation=30;movable=1;rotatable=1;deletable=1;editable=1;locked=0;connectable=1;" parent="Gr0Zq-AI6Quabplr0KPa-191" vertex="1" connectable="0">
          <mxGeometry x="-0.1124" y="-1" relative="1" as="geometry">
            <mxPoint x="28" y="1" as="offset" />
          </mxGeometry>
        </mxCell>
        <mxCell id="Gr0Zq-AI6Quabplr0KPa-190" value="" style="whiteSpace=wrap;html=1;rounded=1;arcSize=50;align=center;verticalAlign=middle;container=1;recursiveResize=0;strokeWidth=1;autosize=1;spacing=4;treeFolding=1;collapsible=0;movable=1;resizable=1;rotatable=1;deletable=1;editable=1;locked=0;connectable=1;" parent="1" vertex="1">
          <mxGeometry x="620" y="-97" height="1" as="geometry" />
        </mxCell>
        <mxCell id="Gr0Zq-AI6Quabplr0KPa-188" value="" style="edgeStyle=entityRelationEdgeStyle;startArrow=none;endArrow=none;segment=10;curved=1;strokeColor=#660000;rounded=0;fontSize=12;startSize=8;endSize=8;movable=1;resizable=1;rotatable=1;deletable=1;editable=1;locked=0;connectable=1;" parent="1" source="Gr0Zq-AI6Quabplr0KPa-181" target="Gr0Zq-AI6Quabplr0KPa-187" edge="1">
          <mxGeometry relative="1" as="geometry">
            <mxPoint x="242" y="-230.5" as="sourcePoint" />
            <mxPoint x="304" y="-208" as="targetPoint" />
          </mxGeometry>
        </mxCell>
        <mxCell id="Gr0Zq-AI6Quabplr0KPa-189" value="类之间的关系" style="text;html=1;resizable=1;points=[];align=center;verticalAlign=middle;labelBackgroundColor=none;fontFamily=Comic Sans MS;rotation=0;movable=1;rotatable=1;deletable=1;editable=1;locked=0;connectable=1;" parent="Gr0Zq-AI6Quabplr0KPa-188" vertex="1" connectable="0">
          <mxGeometry x="-0.1124" y="-1" relative="1" as="geometry">
            <mxPoint x="24" y="-12" as="offset" />
          </mxGeometry>
        </mxCell>
        <mxCell id="Gr0Zq-AI6Quabplr0KPa-187" value="" style="whiteSpace=wrap;html=1;rounded=1;arcSize=50;align=center;verticalAlign=middle;container=1;recursiveResize=0;strokeWidth=1;autosize=1;spacing=4;treeFolding=1;collapsible=0;movable=1;resizable=1;rotatable=1;deletable=1;editable=1;locked=0;connectable=1;" parent="1" vertex="1">
          <mxGeometry x="620" y="-153" height="1" as="geometry" />
        </mxCell>
        <mxCell id="weYwpgBtBjXtjdj9eZsf-23" value="" style="edgeStyle=entityRelationEdgeStyle;startArrow=none;endArrow=none;segment=10;curved=1;strokeColor=#660000;rounded=0;fontSize=12;startSize=8;endSize=8;movable=1;resizable=1;rotatable=1;deletable=1;editable=1;locked=0;connectable=1;" edge="1" target="weYwpgBtBjXtjdj9eZsf-25" source="Gr0Zq-AI6Quabplr0KPa-187" parent="1">
          <mxGeometry relative="1" as="geometry">
            <mxPoint x="711" y="-116" as="sourcePoint" />
            <mxPoint x="491" y="-171" as="targetPoint" />
          </mxGeometry>
        </mxCell>
        <mxCell id="weYwpgBtBjXtjdj9eZsf-24" value="继承" style="text;html=1;resizable=1;points=[];align=center;verticalAlign=middle;labelBackgroundColor=none;fontFamily=Comic Sans MS;rotation=0;movable=1;rotatable=1;deletable=1;editable=1;locked=0;connectable=1;" vertex="1" connectable="0" parent="weYwpgBtBjXtjdj9eZsf-23">
          <mxGeometry x="-0.1124" y="-1" relative="1" as="geometry">
            <mxPoint x="9" y="-9" as="offset" />
          </mxGeometry>
        </mxCell>
        <mxCell id="weYwpgBtBjXtjdj9eZsf-25" value="" style="whiteSpace=wrap;html=1;rounded=1;arcSize=50;align=center;verticalAlign=middle;container=1;recursiveResize=0;strokeWidth=1;autosize=1;spacing=4;treeFolding=1;collapsible=0;movable=1;resizable=1;rotatable=1;deletable=1;editable=1;locked=0;connectable=1;" vertex="1" parent="1">
          <mxGeometry x="851" y="-266" height="1" as="geometry" />
        </mxCell>
        <mxCell id="weYwpgBtBjXtjdj9eZsf-41" value="" style="edgeStyle=entityRelationEdgeStyle;startArrow=none;endArrow=none;segment=10;curved=1;strokeColor=#660000;rounded=0;fontSize=12;startSize=8;endSize=8;movable=1;resizable=1;rotatable=1;deletable=1;editable=1;locked=0;connectable=1;" edge="1" target="weYwpgBtBjXtjdj9eZsf-43" source="Gr0Zq-AI6Quabplr0KPa-187" parent="1">
          <mxGeometry relative="1" as="geometry">
            <mxPoint x="711" y="-116" as="sourcePoint" />
            <mxPoint x="491" y="-171" as="targetPoint" />
          </mxGeometry>
        </mxCell>
        <mxCell id="weYwpgBtBjXtjdj9eZsf-42" value="依赖" style="text;html=1;resizable=1;points=[];align=center;verticalAlign=middle;labelBackgroundColor=none;fontFamily=Comic Sans MS;rotation=0;movable=1;rotatable=1;deletable=1;editable=1;locked=0;connectable=1;" vertex="1" connectable="0" parent="weYwpgBtBjXtjdj9eZsf-41">
          <mxGeometry x="-0.1124" y="-1" relative="1" as="geometry">
            <mxPoint x="13" y="-1" as="offset" />
          </mxGeometry>
        </mxCell>
        <mxCell id="weYwpgBtBjXtjdj9eZsf-43" value="" style="whiteSpace=wrap;html=1;rounded=1;arcSize=50;align=center;verticalAlign=middle;container=1;recursiveResize=0;strokeWidth=1;autosize=1;spacing=4;treeFolding=1;collapsible=0;movable=1;resizable=1;rotatable=1;deletable=1;editable=1;locked=0;connectable=1;" vertex="1" parent="1">
          <mxGeometry x="851" y="-185.99999999999994" height="1" as="geometry" />
        </mxCell>
        <mxCell id="weYwpgBtBjXtjdj9eZsf-44" value="" style="edgeStyle=entityRelationEdgeStyle;startArrow=none;endArrow=none;segment=10;curved=1;strokeColor=#660000;rounded=0;fontSize=12;startSize=8;endSize=8;movable=1;resizable=1;rotatable=1;deletable=1;editable=1;locked=0;connectable=1;" edge="1" target="weYwpgBtBjXtjdj9eZsf-46" source="Gr0Zq-AI6Quabplr0KPa-187" parent="1">
          <mxGeometry relative="1" as="geometry">
            <mxPoint x="711" y="-116" as="sourcePoint" />
            <mxPoint x="491" y="-171" as="targetPoint" />
          </mxGeometry>
        </mxCell>
        <mxCell id="weYwpgBtBjXtjdj9eZsf-45" value="实现" style="text;html=1;resizable=1;points=[];align=center;verticalAlign=middle;labelBackgroundColor=none;fontFamily=Comic Sans MS;rotation=0;movable=1;rotatable=1;deletable=1;editable=1;locked=0;connectable=1;" vertex="1" connectable="0" parent="weYwpgBtBjXtjdj9eZsf-44">
          <mxGeometry x="-0.1124" y="-1" relative="1" as="geometry">
            <mxPoint x="12" y="3" as="offset" />
          </mxGeometry>
        </mxCell>
        <mxCell id="weYwpgBtBjXtjdj9eZsf-46" value="" style="whiteSpace=wrap;html=1;rounded=1;arcSize=50;align=center;verticalAlign=middle;container=1;recursiveResize=0;strokeWidth=1;autosize=1;spacing=4;treeFolding=1;collapsible=0;movable=1;resizable=1;rotatable=1;deletable=1;editable=1;locked=0;connectable=1;" vertex="1" parent="1">
          <mxGeometry x="851" y="-154.0000000000001" height="1" as="geometry" />
        </mxCell>
        <mxCell id="weYwpgBtBjXtjdj9eZsf-47" value="" style="edgeStyle=entityRelationEdgeStyle;startArrow=none;endArrow=none;segment=10;curved=1;strokeColor=#660000;rounded=0;fontSize=12;startSize=8;endSize=8;movable=1;resizable=1;rotatable=1;deletable=1;editable=1;locked=0;connectable=1;" edge="1" target="weYwpgBtBjXtjdj9eZsf-49" source="Gr0Zq-AI6Quabplr0KPa-187" parent="1">
          <mxGeometry relative="1" as="geometry">
            <mxPoint x="711" y="-116" as="sourcePoint" />
            <mxPoint x="491" y="-171" as="targetPoint" />
          </mxGeometry>
        </mxCell>
        <mxCell id="weYwpgBtBjXtjdj9eZsf-48" value="组合" style="text;html=1;resizable=1;points=[];align=center;verticalAlign=middle;labelBackgroundColor=none;fontFamily=Comic Sans MS;rotation=0;movable=1;rotatable=1;deletable=1;editable=1;locked=0;connectable=1;" vertex="1" connectable="0" parent="weYwpgBtBjXtjdj9eZsf-47">
          <mxGeometry x="-0.1124" y="-1" relative="1" as="geometry">
            <mxPoint x="12" y="5" as="offset" />
          </mxGeometry>
        </mxCell>
        <mxCell id="weYwpgBtBjXtjdj9eZsf-49" value="" style="whiteSpace=wrap;html=1;rounded=1;arcSize=50;align=center;verticalAlign=middle;container=1;recursiveResize=0;strokeWidth=1;autosize=1;spacing=4;treeFolding=1;collapsible=0;movable=1;resizable=1;rotatable=1;deletable=1;editable=1;locked=0;connectable=1;" vertex="1" parent="1">
          <mxGeometry x="846" y="-115.00000000000011" height="1" as="geometry" />
        </mxCell>
        <mxCell id="weYwpgBtBjXtjdj9eZsf-50" value="" style="edgeStyle=entityRelationEdgeStyle;startArrow=none;endArrow=none;segment=10;curved=1;strokeColor=#660000;rounded=0;fontSize=12;startSize=8;endSize=8;movable=1;resizable=1;rotatable=1;deletable=1;editable=1;locked=0;connectable=1;" edge="1" target="weYwpgBtBjXtjdj9eZsf-52" source="Gr0Zq-AI6Quabplr0KPa-187" parent="1">
          <mxGeometry relative="1" as="geometry">
            <mxPoint x="711" y="-116" as="sourcePoint" />
            <mxPoint x="491" y="-171" as="targetPoint" />
          </mxGeometry>
        </mxCell>
        <mxCell id="weYwpgBtBjXtjdj9eZsf-51" value="聚合" style="text;html=1;resizable=1;points=[];align=center;verticalAlign=middle;labelBackgroundColor=none;fontFamily=Comic Sans MS;rotation=0;movable=1;rotatable=1;deletable=1;editable=1;locked=0;connectable=1;" vertex="1" connectable="0" parent="weYwpgBtBjXtjdj9eZsf-50">
          <mxGeometry x="-0.1124" y="-1" relative="1" as="geometry">
            <mxPoint x="9" y="10" as="offset" />
          </mxGeometry>
        </mxCell>
        <mxCell id="weYwpgBtBjXtjdj9eZsf-52" value="" style="whiteSpace=wrap;html=1;rounded=1;arcSize=50;align=center;verticalAlign=middle;container=1;recursiveResize=0;strokeWidth=1;autosize=1;spacing=4;treeFolding=1;collapsible=0;movable=1;resizable=1;rotatable=1;deletable=1;editable=1;locked=0;connectable=1;" vertex="1" parent="1">
          <mxGeometry x="848" y="-76.00000000000023" height="1" as="geometry" />
        </mxCell>
        <mxCell id="weYwpgBtBjXtjdj9eZsf-55" value="" style="edgeStyle=entityRelationEdgeStyle;startArrow=none;endArrow=none;segment=10;curved=1;strokeColor=#660000;rounded=0;fontSize=12;startSize=8;endSize=8;movable=1;resizable=1;rotatable=1;deletable=1;editable=1;locked=0;connectable=1;" edge="1" target="weYwpgBtBjXtjdj9eZsf-57" source="Gr0Zq-AI6Quabplr0KPa-187" parent="1">
          <mxGeometry relative="1" as="geometry">
            <mxPoint x="711" y="-116" as="sourcePoint" />
            <mxPoint x="491" y="-171" as="targetPoint" />
          </mxGeometry>
        </mxCell>
        <mxCell id="weYwpgBtBjXtjdj9eZsf-56" value="关联" style="text;html=1;resizable=1;points=[];align=center;verticalAlign=middle;labelBackgroundColor=none;fontFamily=Comic Sans MS;rotation=0;movable=1;rotatable=1;deletable=1;editable=1;locked=0;connectable=1;" vertex="1" connectable="0" parent="weYwpgBtBjXtjdj9eZsf-55">
          <mxGeometry x="-0.1124" y="-1" relative="1" as="geometry">
            <mxPoint x="13" y="-7" as="offset" />
          </mxGeometry>
        </mxCell>
        <mxCell id="weYwpgBtBjXtjdj9eZsf-57" value="" style="whiteSpace=wrap;html=1;rounded=1;arcSize=50;align=center;verticalAlign=middle;container=1;recursiveResize=0;strokeWidth=1;autosize=1;spacing=4;treeFolding=1;collapsible=0;movable=1;resizable=1;rotatable=1;deletable=1;editable=1;locked=0;connectable=1;" vertex="1" parent="1">
          <mxGeometry x="851" y="-222.00000000000023" height="1" as="geometry" />
        </mxCell>
        <mxCell id="Gr0Zq-AI6Quabplr0KPa-185" value="" style="edgeStyle=entityRelationEdgeStyle;startArrow=none;endArrow=none;segment=10;curved=1;strokeColor=#660000;rounded=0;fontSize=12;startSize=8;endSize=8;movable=1;resizable=1;rotatable=1;deletable=1;editable=1;locked=0;connectable=1;" parent="1" source="Gr0Zq-AI6Quabplr0KPa-181" target="Gr0Zq-AI6Quabplr0KPa-184" edge="1">
          <mxGeometry relative="1" as="geometry">
            <mxPoint x="247" y="-220.5" as="sourcePoint" />
            <mxPoint x="309" y="-198" as="targetPoint" />
          </mxGeometry>
        </mxCell>
        <mxCell id="Gr0Zq-AI6Quabplr0KPa-186" value="类加载器:Class" style="text;html=1;resizable=1;points=[];align=center;verticalAlign=middle;labelBackgroundColor=none;fontFamily=Comic Sans MS;rotation=-30;movable=1;rotatable=1;deletable=1;editable=1;locked=0;connectable=1;" parent="Gr0Zq-AI6Quabplr0KPa-185" vertex="1">
          <mxGeometry x="0.2571" relative="1" as="geometry">
            <mxPoint x="3" y="-14" as="offset" />
          </mxGeometry>
        </mxCell>
        <mxCell id="Gr0Zq-AI6Quabplr0KPa-184" value="" style="whiteSpace=wrap;html=1;rounded=1;arcSize=50;align=center;verticalAlign=middle;container=1;recursiveResize=0;strokeWidth=1;autosize=1;spacing=4;treeFolding=1;collapsible=0;movable=1;resizable=1;rotatable=1;deletable=1;editable=1;locked=0;connectable=1;" parent="1" vertex="1" collapsed="1">
          <mxGeometry x="615" y="-204" width="5" as="geometry" />
        </mxCell>
        <mxCell id="weYwpgBtBjXtjdj9eZsf-86" value="" style="edgeStyle=entityRelationEdgeStyle;startArrow=none;endArrow=none;segment=10;curved=1;strokeWidth=2;strokeColor=#336600;rounded=0;fontSize=12;startSize=8;endSize=8;movable=1;resizable=1;rotatable=1;deletable=1;editable=1;locked=0;connectable=1;" edge="1" target="weYwpgBtBjXtjdj9eZsf-88" source="Gr0Zq-AI6Quabplr0KPa-180" parent="1">
          <mxGeometry relative="1" as="geometry">
            <mxPoint x="410" y="-33" as="sourcePoint" />
            <mxPoint x="388" y="-73.5" as="targetPoint" />
          </mxGeometry>
        </mxCell>
        <mxCell id="weYwpgBtBjXtjdj9eZsf-87" value="框架" style="text;html=1;resizable=1;points=[];align=center;verticalAlign=middle;labelBackgroundColor=none;rotation=50;fontFamily=Comic Sans MS;movable=1;rotatable=1;deletable=1;editable=1;locked=0;connectable=1;" vertex="1" connectable="0" parent="weYwpgBtBjXtjdj9eZsf-86">
          <mxGeometry x="0.0245" y="2" relative="1" as="geometry">
            <mxPoint x="12" y="-7" as="offset" />
          </mxGeometry>
        </mxCell>
        <mxCell id="weYwpgBtBjXtjdj9eZsf-88" value="" style="whiteSpace=wrap;html=1;rounded=1;arcSize=50;align=center;verticalAlign=middle;container=1;recursiveResize=0;strokeWidth=1;autosize=1;spacing=4;treeFolding=1;movable=1;resizable=1;rotatable=1;deletable=1;editable=1;locked=0;connectable=1;" vertex="1" collapsed="1" parent="1">
          <mxGeometry x="228" y="-97" height="92" as="geometry" />
        </mxCell>
      </root>
    </mxGraphModel>
  </diagram>
</mxfile>
